<?xml version="1.0" encoding="UTF-8"?>
<svg width="18px" height="17px" viewBox="0 0 18 17" version="1.1" xmlns="http://www.w3.org/2000/svg" xmlns:xlink="http://www.w3.org/1999/xlink">
    <!-- Generator: Sketch 51.2 (57519) - http://www.bohemiancoding.com/sketch -->
    <title>Icon/Social/Placeholder</title>
    <desc>Created with Sketch.</desc>
    <defs></defs>
    <g id="Desktop" stroke="none" stroke-width="1" fill="none" fill-rule="evenodd">
        <g id="Contact-Us" transform="translate(-830.000000, -2753.000000)" fill="#4573BB">
            <g id="Group-3" transform="translate(-1.000000, 2633.000000)">
                <g id="Group-2">
                    <g id="Socials-Icons" transform="translate(716.000000, 117.000000)">
                        <g id="Icon/Social/Linkedin" transform="translate(111.272727, 0.000000)">
                            <path d="M20.8333333,19.7916667 L17.6282051,19.7916667 L17.6282051,13.9549218 C17.6282051,12.3537573 16.9495192,11.4606077 15.7323718,11.4606077 C14.4078526,11.4606077 13.6217949,12.3912846 13.6217949,13.9549218 L13.6217949,19.7916667 L10.4166667,19.7916667 L10.4166667,8.95044881 L13.6217949,8.95044881 L13.6217949,10.1696689 C13.6217949,10.1696689 14.6274038,8.33333333 16.8934295,8.33333333 C19.1602564,8.33333333 20.8333333,9.77271349 20.8333333,12.7515466 L20.8333333,19.7916667 L20.8333333,19.7916667 Z M5.72948644,6.25 C4.86615971,6.25 4.16666667,5.55019305 4.16666667,4.68718248 C4.16666667,3.82480695 4.86615971,3.125 5.72948644,3.125 C6.59217319,3.125 7.29166623,3.82480695 7.29166623,4.68718248 C7.2923062,5.55019305 6.59217319,6.25 5.72948644,6.25 L5.72948644,6.25 Z M4.16666667,19.7916667 L7.29166667,19.7916667 L7.29166667,9.375 L4.16666667,9.375 L4.16666667,19.7916667 Z" id="linkedin"></path>
                        </g>
                    </g>
                </g>
            </g>
        </g>
    </g>
</svg>