<?xml version="1.0" encoding="UTF-8"?>
<svg width="18px" height="15px" viewBox="0 0 18 15" version="1.1" xmlns="http://www.w3.org/2000/svg" xmlns:xlink="http://www.w3.org/1999/xlink">
    <!-- Generator: Sketch 51.2 (57519) - http://www.bohemiancoding.com/sketch -->
    <title>Icon/Social/Google</title>
    <desc>Created with Sketch.</desc>
    <defs></defs>
    <g id="Desktop" stroke="none" stroke-width="1" fill="none" fill-rule="evenodd">
        <g id="Contact-Us" transform="translate(-774.000000, -2755.000000)" fill="#4573BB">
            <g id="Group-3" transform="translate(-1.000000, 2633.000000)">
                <g id="Group-2">
                    <g id="Socials-Icons" transform="translate(716.000000, 117.000000)">
                        <g id="Icon/Social/Twitter" transform="translate(55.636364, 0.000000)">
                            <path d="M9.40833333,19.7916667 C15.6975,19.7916667 19.1375,14.180413 19.1375,9.31487363 C19.1375,9.1551418 19.1375,8.99630733 19.1275,8.83837024 C19.7966667,8.31789573 20.3741667,7.67178943 20.8333333,6.93235667 C20.21,7.23028346 19.5475,7.42591009 18.87,7.5120576 C19.5833333,7.05170686 20.1175,6.32842676 20.3733333,5.47502803 C19.7016667,5.90397082 18.9675,6.20638446 18.2016667,6.3688084 C16.9066667,4.88635341 14.7408333,4.81456382 13.3633333,6.20907657 C12.4758333,7.10824116 12.0983333,8.44891172 12.3741667,9.72766376 C9.625,9.57870037 7.06333333,8.18059814 5.32666667,5.8806392 C4.41916667,7.56320768 4.88333333,9.71510059 6.38583333,10.7955339 C5.84166667,10.7784839 5.30916667,10.6205468 4.83333333,10.3351832 L4.83333333,10.3818464 C4.83416667,12.1344097 5.98166667,13.6437858 7.57666667,13.9910679 C7.07333333,14.139134 6.545,14.1606708 6.03333333,14.0538838 C6.48083333,15.5542862 7.765,16.5817747 9.2275,16.6113879 C8.01666667,17.6361843 6.52083333,18.1925536 4.98083333,18.1907588 C4.70916667,18.1898615 4.4375,18.1728115 4.16666667,18.137814 C5.73083333,19.2182473 7.55,19.7916667 9.40833333,19.7889746" id="twitter"></path>
                        </g>
                    </g>
                </g>
            </g>
        </g>
    </g>
</svg>